<svg xmlns="http://www.w3.org/2000/svg" xmlns:xlink="http://www.w3.org/1999/xlink" width="230" zoomAndPan="magnify" viewBox="0 0 172.5 30.000001" height="40" preserveAspectRatio="xMidYMid meet" version="1.0"><defs><g/><clipPath id="5db01411aa"><path d="M 74 1 L 125 1 L 125 29.03125 L 74 29.03125 Z M 74 1 " clip-rule="nonzero"/></clipPath></defs><path stroke-linecap="butt" transform="matrix(0.555864, 0, 0, 0.555864, 50.896976, -2.673467)" fill="none" stroke-linejoin="miter" d="M 0.761583 22.947144 L 0.761583 21.928179 L 10.543647 21.928179 L 10.543647 22.947144 L 9.735502 22.947144 C 9.510627 22.947144 9.306834 23.045527 9.138178 23.228238 C 8.969522 23.403921 8.892221 23.677988 8.892221 24.04341 C 8.892221 24.324503 8.976549 24.725062 9.145205 25.231031 L 12.954026 35.856376 L 16.046058 27.219769 L 15.413597 25.399687 C 15.132503 24.584515 14.816273 23.973136 14.457878 23.572577 C 14.106511 23.157964 13.621624 22.947144 12.99619 22.947144 L 12.448057 22.947144 L 12.448057 21.928179 L 22.314449 21.928179 L 22.314449 22.947144 L 21.084664 22.947144 C 20.859789 22.947144 20.634914 23.045527 20.403012 23.228238 C 20.185164 23.403921 20.072726 23.677988 20.072726 24.04341 C 20.072726 24.324503 20.157055 24.725062 20.325711 25.231031 L 23.712891 35.315271 L 26.924388 26.383515 C 27.128181 25.751054 27.226563 25.118593 27.226563 24.472078 C 27.226563 24.106656 27.093044 23.755288 26.826005 23.432031 C 26.558966 23.108773 26.193544 22.947144 25.736766 22.947144 L 24.640501 22.947144 L 24.640501 21.928179 L 31.836502 21.928179 L 31.836502 22.947144 L 30.908892 22.947144 C 29.946146 22.947144 29.159083 23.825562 28.540677 25.575371 L 22.440942 42.504244 L 21.084664 42.504244 L 16.643382 29.004715 L 11.773432 42.504244 L 10.417155 42.504244 L 4.240119 25.399687 C 3.959025 24.584515 3.621712 23.973136 3.235208 23.572577 C 2.855732 23.157964 2.272462 22.947144 1.478372 22.947144 Z M 36.144264 14.486221 C 36.144264 13.579693 36.44644 12.834795 37.050791 12.23747 C 37.669198 11.647173 38.414096 11.352025 39.285487 11.352025 C 40.192015 11.352025 40.936913 11.647173 41.52721 12.23747 C 42.124534 12.834795 42.419683 13.579693 42.419683 14.486221 C 42.419683 15.357611 42.124534 16.10251 41.52721 16.706862 C 40.936913 17.311213 40.192015 17.613389 39.285487 17.613389 C 38.414096 17.613389 37.669198 17.311213 37.050791 16.706862 C 36.44644 16.10251 36.144264 15.357611 36.144264 14.486221 Z M 34.542029 41.998275 L 34.542029 40.986338 L 36.144264 40.986338 C 36.601041 40.986338 36.825916 40.761463 36.825916 40.304685 L 36.825916 23.621769 C 36.825916 23.172019 36.601041 22.947144 36.144264 22.947144 L 34.542029 22.947144 L 34.542029 21.928179 L 41.73803 21.928179 L 41.73803 40.304685 C 41.73803 40.761463 41.962905 40.986338 42.419683 40.986338 L 44.021917 40.986338 L 44.021917 41.998275 Z M 34.542029 41.998275 " stroke="#475347" stroke-width="1.111569" stroke-opacity="1" stroke-miterlimit="4"/><g fill="#475347" fill-opacity="1"><g transform="translate(50.896976, 20.672834)"><g><path d="M 0.421875 -10.59375 L 0.421875 -11.15625 L 5.859375 -11.15625 L 5.859375 -10.59375 L 5.40625 -10.59375 C 5.28125 -10.59375 5.171875 -10.539062 5.078125 -10.4375 C 4.984375 -10.332031 4.9375 -10.179688 4.9375 -9.984375 C 4.9375 -9.816406 4.984375 -9.59375 5.078125 -9.3125 L 7.203125 -3.40625 L 8.921875 -8.21875 L 8.5625 -9.21875 C 8.40625 -9.675781 8.226562 -10.019531 8.03125 -10.25 C 7.832031 -10.476562 7.5625 -10.59375 7.21875 -10.59375 L 6.921875 -10.59375 L 6.921875 -11.15625 L 12.40625 -11.15625 L 12.40625 -10.59375 L 11.71875 -10.59375 C 11.59375 -10.59375 11.46875 -10.539062 11.34375 -10.4375 C 11.21875 -10.332031 11.15625 -10.179688 11.15625 -9.984375 C 11.15625 -9.816406 11.203125 -9.59375 11.296875 -9.3125 L 13.171875 -3.71875 L 14.96875 -8.6875 C 15.070312 -9.03125 15.125 -9.378906 15.125 -9.734375 C 15.125 -9.941406 15.050781 -10.132812 14.90625 -10.3125 C 14.757812 -10.5 14.5625 -10.59375 14.3125 -10.59375 L 13.6875 -10.59375 L 13.6875 -11.15625 L 17.703125 -11.15625 L 17.703125 -10.59375 L 17.171875 -10.59375 C 16.640625 -10.59375 16.203125 -10.101562 15.859375 -9.125 L 12.46875 0.28125 L 11.71875 0.28125 L 9.25 -7.21875 L 6.546875 0.28125 L 5.78125 0.28125 L 2.359375 -9.21875 C 2.203125 -9.675781 2.015625 -10.019531 1.796875 -10.25 C 1.585938 -10.476562 1.265625 -10.59375 0.828125 -10.59375 Z M 0.421875 -10.59375 "/></g></g></g><g fill="#475347" fill-opacity="1"><g transform="translate(69.155238, 20.672834)"><g><path d="M 1.828125 -15.296875 C 1.828125 -15.796875 1.992188 -16.207031 2.328125 -16.53125 C 2.671875 -16.863281 3.085938 -17.03125 3.578125 -17.03125 C 4.078125 -17.03125 4.488281 -16.863281 4.8125 -16.53125 C 5.144531 -16.207031 5.3125 -15.796875 5.3125 -15.296875 C 5.3125 -14.804688 5.144531 -14.390625 4.8125 -14.046875 C 4.488281 -13.710938 4.078125 -13.546875 3.578125 -13.546875 C 3.085938 -13.546875 2.671875 -13.710938 2.328125 -14.046875 C 1.992188 -14.390625 1.828125 -14.804688 1.828125 -15.296875 Z M 0.9375 0 L 0.9375 -0.5625 L 1.828125 -0.5625 C 2.085938 -0.5625 2.21875 -0.6875 2.21875 -0.9375 L 2.21875 -10.21875 C 2.21875 -10.46875 2.085938 -10.59375 1.828125 -10.59375 L 0.9375 -10.59375 L 0.9375 -11.15625 L 4.9375 -11.15625 L 4.9375 -0.9375 C 4.9375 -0.6875 5.0625 -0.5625 5.3125 -0.5625 L 6.21875 -0.5625 L 6.21875 0 Z M 0.9375 0 "/></g></g></g><g clip-path="url(#5db01411aa)"><path stroke-linecap="butt" transform="matrix(0.662713, 0, 0, 0.662713, 76.132344, -1.090239)" fill="none" stroke-linejoin="miter" d="M 2.482222 22.37549 C 2.482222 20.607189 2.706207 18.92141 3.154176 17.32994 C 3.602146 15.732575 4.250522 14.317935 5.099306 13.086019 C 5.953985 11.859997 6.997282 10.887432 8.223304 10.180112 C 9.455219 9.466898 10.852177 9.113238 12.414175 9.113238 C 13.38674 9.113238 14.247313 9.290068 15.001788 9.631939 C 15.756263 9.973811 16.493054 10.38052 17.200374 10.852066 C 17.459725 11.017108 17.689604 11.146783 17.884117 11.246987 C 18.090419 11.335402 18.261355 11.382556 18.402819 11.382556 C 18.620909 11.382556 18.780056 11.317719 18.88026 11.193938 C 18.992252 11.058368 19.092456 10.899221 19.186765 10.710602 L 19.823353 9.40206 L 20.996326 9.40206 L 20.996326 20.283001 L 19.858719 20.283001 C 19.499165 18.249456 18.96278 16.48705 18.243672 14.983995 C 17.518668 13.486834 16.66399 12.319756 15.667848 11.494549 C 14.677599 10.663448 13.593042 10.250844 12.414175 10.250844 C 11.748115 10.250844 11.123316 10.46304 10.527988 10.887432 C 9.938555 11.311824 9.455219 12.019144 9.072088 13.021181 C 8.69485 14.011429 8.512126 15.355338 8.512126 17.052906 L 8.512126 27.692179 C 8.512126 29.395642 8.730216 30.745444 9.166397 31.735692 C 9.608472 32.731835 10.150751 33.439155 10.793233 33.863547 C 11.447504 34.293833 12.10767 34.506029 12.767835 34.506029 C 14.441826 34.506029 15.773946 34.111109 16.770088 33.321268 C 17.760336 32.525533 18.520705 31.629594 19.045301 30.639346 C 19.469693 29.831822 19.776198 28.941778 19.9825 27.963318 C 20.182908 26.978965 20.330266 26.077131 20.424575 25.251925 L 21.703646 25.251925 C 21.627019 26.22449 21.473767 27.238315 21.237993 28.299295 C 21.008114 29.360276 20.678032 30.309263 20.247745 31.140364 C 19.540425 32.50785 18.556071 33.598302 17.306472 34.417614 C 16.050979 35.231032 14.54203 35.637741 12.767835 35.637741 C 11.040795 35.637741 9.531846 35.266398 8.240987 34.523712 C 6.956022 33.781026 5.883253 32.773095 5.028574 31.511708 C 4.17979 30.238531 3.543202 28.817997 3.11881 27.232421 C 2.694418 25.652739 2.482222 24.031797 2.482222 22.37549 Z M 24.821748 35.001153 L 24.821748 34.152369 L 26.159762 34.152369 C 26.542894 34.152369 26.731513 33.963751 26.731513 33.580619 L 26.731513 19.605153 C 26.731513 19.233809 26.542894 19.045191 26.159762 19.045191 L 24.821748 19.045191 L 24.821748 18.190512 L 30.845758 18.190512 L 30.845758 21.703535 L 31.028482 21.738901 C 31.264256 21.072842 31.570761 20.442148 31.942104 19.840926 C 32.325236 19.239704 32.773205 18.74458 33.291907 18.349659 C 33.816502 17.960633 34.37057 17.76612 34.954109 17.76612 C 35.832365 17.76612 36.539685 18.07852 37.070175 18.709214 C 37.600665 19.328119 37.86591 20.106171 37.86591 21.025687 C 37.86591 21.880366 37.624242 22.628946 37.140907 23.271428 C 36.651677 23.902122 36.032772 24.220416 35.278297 24.220416 C 34.641709 24.220416 34.09943 24.025903 33.651461 23.642771 C 33.197597 23.247851 32.973613 22.764516 32.973613 22.19866 C 32.973613 21.845 33.062028 21.509022 33.232963 21.190728 C 33.409793 20.86654 33.610201 20.589506 33.822397 20.353733 C 33.946178 20.212269 34.05817 20.076699 34.158374 19.935235 C 34.270366 19.793771 34.323415 19.658202 34.323415 19.540315 C 34.323415 19.298647 34.19374 19.18076 33.934389 19.18076 C 33.462842 19.18076 32.985401 19.522632 32.496172 20.194586 C 32.012836 20.872434 31.612021 21.762479 31.305516 22.864719 C 30.999011 23.961065 30.845758 25.157615 30.845758 26.454369 L 30.845758 33.580619 C 30.845758 33.963751 31.034377 34.152369 31.417508 34.152369 L 32.549221 34.152369 L 32.549221 35.001153 Z M 41.549869 11.954307 C 41.549869 11.199832 41.803325 10.575033 42.310238 10.074014 C 42.823045 9.57889 43.447844 9.331328 44.178742 9.331328 C 44.933217 9.331328 45.56391 9.57889 46.059034 10.074014 C 46.554158 10.575033 46.801721 11.199832 46.801721 11.954307 C 46.801721 12.685204 46.554158 13.310004 46.059034 13.816916 C 45.56391 14.323829 44.933217 14.577286 44.178742 14.577286 C 43.447844 14.577286 42.823045 14.323829 42.310238 13.816916 C 41.803325 13.310004 41.549869 12.685204 41.549869 11.954307 Z M 40.205961 35.001153 L 40.205961 34.152369 L 41.549869 34.152369 C 41.927106 34.152369 42.121619 33.963751 42.121619 33.580619 L 42.121619 19.605153 C 42.121619 19.233809 41.927106 19.045191 41.549869 19.045191 L 40.205961 19.045191 L 40.205961 18.190512 L 46.22997 18.190512 L 46.22997 33.580619 C 46.22997 33.963751 46.418589 34.152369 46.801721 34.152369 L 48.145629 34.152369 L 48.145629 35.001153 Z M 50.986698 26.595833 C 50.986698 25.104566 51.251943 23.689926 51.782433 22.346018 C 52.312923 20.990321 53.061503 19.893975 54.034069 19.045191 C 55.000739 18.190512 56.114768 17.76612 57.364367 17.76612 C 58.336932 17.76612 59.103196 18.013682 59.669052 18.508806 C 60.234908 19.00393 60.694666 19.528526 61.05422 20.076699 C 61.337149 20.518774 61.572922 20.82528 61.761541 20.990321 C 61.956054 21.161257 62.180038 21.243777 62.439389 21.243777 C 62.834309 21.243777 63.176181 20.913695 63.459109 20.247635 L 64.455251 18.190512 L 65.027002 18.190512 L 65.027002 41.667645 C 65.027002 42.044883 65.21562 42.239396 65.592858 42.239396 L 66.94266 42.239396 L 66.94266 43.08818 L 58.36051 43.08818 L 58.36051 42.239396 L 60.341006 42.239396 C 60.718243 42.239396 60.906862 42.044883 60.906862 41.667645 L 60.906862 32.985291 L 60.70056 32.90277 C 60.341006 33.639562 59.875354 34.240784 59.297709 34.712331 C 58.720064 35.189772 58.030427 35.425545 57.228798 35.425545 C 55.96741 35.425545 54.86517 35.001153 53.922076 34.152369 C 52.978983 33.297691 52.25398 32.19545 51.747067 30.851542 C 51.240154 29.50174 50.986698 28.081205 50.986698 26.595833 Z M 55.519441 26.595833 C 55.519441 28.859257 55.696271 30.710078 56.049931 32.142401 C 56.409485 33.574724 57.010707 34.287939 57.859491 34.287939 C 58.242623 34.287939 58.667015 34.022694 59.138562 33.492204 C 59.616003 32.961714 60.028606 32.124718 60.376372 30.975323 C 60.730032 29.825928 60.906862 28.328767 60.906862 26.489735 C 60.906862 25.0692 60.765398 23.79013 60.48247 22.646629 C 60.199542 21.497234 59.828199 20.583612 59.362547 19.911658 C 58.902789 19.233809 58.40177 18.897832 57.859491 18.897832 C 57.010707 18.897832 56.409485 19.611047 56.049931 21.04337 C 55.696271 22.475693 55.519441 24.326514 55.519441 26.595833 Z M 55.519441 26.595833 " stroke="#ffffff" stroke-width="0.975334" stroke-opacity="1" stroke-miterlimit="4"/></g><g fill="#ffffff" fill-opacity="1"><g transform="translate(76.132344, 22.104704)"><g><path d="M 1.640625 -8.359375 C 1.640625 -9.535156 1.785156 -10.648438 2.078125 -11.703125 C 2.378906 -12.765625 2.8125 -13.703125 3.375 -14.515625 C 3.945312 -15.335938 4.640625 -15.984375 5.453125 -16.453125 C 6.265625 -16.921875 7.1875 -17.15625 8.21875 -17.15625 C 8.863281 -17.15625 9.4375 -17.039062 9.9375 -16.8125 C 10.4375 -16.582031 10.921875 -16.3125 11.390625 -16 C 11.566406 -15.894531 11.722656 -15.8125 11.859375 -15.75 C 11.992188 -15.6875 12.109375 -15.65625 12.203125 -15.65625 C 12.335938 -15.65625 12.441406 -15.695312 12.515625 -15.78125 C 12.585938 -15.863281 12.65625 -15.96875 12.71875 -16.09375 L 13.140625 -16.96875 L 13.90625 -16.96875 L 13.90625 -9.75 L 13.15625 -9.75 C 12.925781 -11.101562 12.570312 -12.273438 12.09375 -13.265625 C 11.613281 -14.265625 11.046875 -15.035156 10.390625 -15.578125 C 9.734375 -16.128906 9.007812 -16.40625 8.21875 -16.40625 C 7.78125 -16.40625 7.363281 -16.265625 6.96875 -15.984375 C 6.582031 -15.703125 6.265625 -15.226562 6.015625 -14.5625 C 5.765625 -13.90625 5.640625 -13.015625 5.640625 -11.890625 L 5.640625 -4.84375 C 5.640625 -3.71875 5.785156 -2.820312 6.078125 -2.15625 C 6.367188 -1.5 6.726562 -1.03125 7.15625 -0.75 C 7.582031 -0.46875 8.015625 -0.328125 8.453125 -0.328125 C 9.566406 -0.328125 10.453125 -0.585938 11.109375 -1.109375 C 11.773438 -1.640625 12.28125 -2.234375 12.625 -2.890625 C 12.90625 -3.421875 13.109375 -4.007812 13.234375 -4.65625 C 13.367188 -5.3125 13.46875 -5.914062 13.53125 -6.46875 L 14.375 -6.46875 C 14.332031 -5.820312 14.234375 -5.144531 14.078125 -4.4375 C 13.921875 -3.738281 13.703125 -3.113281 13.421875 -2.5625 C 12.953125 -1.65625 12.300781 -0.929688 11.46875 -0.390625 C 10.632812 0.148438 9.628906 0.421875 8.453125 0.421875 C 7.316406 0.421875 6.320312 0.175781 5.46875 -0.3125 C 4.613281 -0.8125 3.898438 -1.476562 3.328125 -2.3125 C 2.765625 -3.15625 2.34375 -4.097656 2.0625 -5.140625 C 1.78125 -6.191406 1.640625 -7.265625 1.640625 -8.359375 Z M 1.640625 -8.359375 "/></g></g></g><g fill="#ffffff" fill-opacity="1"><g transform="translate(91.63918, 22.104704)"><g><path d="M 0.9375 0 L 0.9375 -0.5625 L 1.828125 -0.5625 C 2.078125 -0.5625 2.203125 -0.6875 2.203125 -0.9375 L 2.203125 -10.203125 C 2.203125 -10.453125 2.078125 -10.578125 1.828125 -10.578125 L 0.9375 -10.578125 L 0.9375 -11.140625 L 4.9375 -11.140625 L 4.9375 -8.8125 L 5.046875 -8.78125 C 5.203125 -9.226562 5.40625 -9.648438 5.65625 -10.046875 C 5.914062 -10.441406 6.21875 -10.769531 6.5625 -11.03125 C 6.90625 -11.289062 7.269531 -11.421875 7.65625 -11.421875 C 8.238281 -11.421875 8.707031 -11.210938 9.0625 -10.796875 C 9.414062 -10.378906 9.59375 -9.867188 9.59375 -9.265625 C 9.59375 -8.691406 9.429688 -8.191406 9.109375 -7.765625 C 8.785156 -7.347656 8.375 -7.140625 7.875 -7.140625 C 7.445312 -7.140625 7.082031 -7.269531 6.78125 -7.53125 C 6.488281 -7.789062 6.34375 -8.109375 6.34375 -8.484375 C 6.34375 -8.722656 6.398438 -8.945312 6.515625 -9.15625 C 6.640625 -9.363281 6.769531 -9.546875 6.90625 -9.703125 C 6.988281 -9.796875 7.0625 -9.890625 7.125 -9.984375 C 7.195312 -10.078125 7.234375 -10.164062 7.234375 -10.25 C 7.234375 -10.40625 7.148438 -10.484375 6.984375 -10.484375 C 6.671875 -10.484375 6.351562 -10.257812 6.03125 -9.8125 C 5.707031 -9.363281 5.441406 -8.773438 5.234375 -8.046875 C 5.035156 -7.316406 4.9375 -6.519531 4.9375 -5.65625 L 4.9375 -0.9375 C 4.9375 -0.6875 5.0625 -0.5625 5.3125 -0.5625 L 6.0625 -0.5625 L 6.0625 0 Z M 0.9375 0 "/></g></g></g><g fill="#ffffff" fill-opacity="1"><g transform="translate(101.836103, 22.104704)"><g><path d="M 1.828125 -15.28125 C 1.828125 -15.78125 1.992188 -16.191406 2.328125 -16.515625 C 2.671875 -16.847656 3.085938 -17.015625 3.578125 -17.015625 C 4.078125 -17.015625 4.488281 -16.847656 4.8125 -16.515625 C 5.144531 -16.191406 5.3125 -15.78125 5.3125 -15.28125 C 5.3125 -14.789062 5.144531 -14.375 4.8125 -14.03125 C 4.488281 -13.695312 4.078125 -13.53125 3.578125 -13.53125 C 3.085938 -13.53125 2.671875 -13.695312 2.328125 -14.03125 C 1.992188 -14.375 1.828125 -14.789062 1.828125 -15.28125 Z M 0.9375 0 L 0.9375 -0.5625 L 1.828125 -0.5625 C 2.078125 -0.5625 2.203125 -0.6875 2.203125 -0.9375 L 2.203125 -10.203125 C 2.203125 -10.453125 2.078125 -10.578125 1.828125 -10.578125 L 0.9375 -10.578125 L 0.9375 -11.140625 L 4.9375 -11.140625 L 4.9375 -0.9375 C 4.9375 -0.6875 5.0625 -0.5625 5.3125 -0.5625 L 6.203125 -0.5625 L 6.203125 0 Z M 0.9375 0 "/></g></g></g><g fill="#ffffff" fill-opacity="1"><g transform="translate(108.790683, 22.104704)"><g><path d="M 1.125 -5.5625 C 1.125 -6.550781 1.300781 -7.492188 1.65625 -8.390625 C 2.007812 -9.285156 2.503906 -10.015625 3.140625 -10.578125 C 3.785156 -11.140625 4.523438 -11.421875 5.359375 -11.421875 C 6.003906 -11.421875 6.515625 -11.253906 6.890625 -10.921875 C 7.265625 -10.597656 7.566406 -10.253906 7.796875 -9.890625 C 7.984375 -9.597656 8.140625 -9.394531 8.265625 -9.28125 C 8.390625 -9.175781 8.539062 -9.125 8.71875 -9.125 C 8.988281 -9.125 9.21875 -9.34375 9.40625 -9.78125 L 10.0625 -11.140625 L 10.4375 -11.140625 L 10.4375 4.421875 C 10.4375 4.671875 10.5625 4.796875 10.8125 4.796875 L 11.703125 4.796875 L 11.703125 5.359375 L 6.015625 5.359375 L 6.015625 4.796875 L 7.328125 4.796875 C 7.578125 4.796875 7.703125 4.671875 7.703125 4.421875 L 7.703125 -1.34375 L 7.5625 -1.390625 C 7.332031 -0.898438 7.023438 -0.5 6.640625 -0.1875 C 6.253906 0.125 5.796875 0.28125 5.265625 0.28125 C 4.429688 0.28125 3.703125 0 3.078125 -0.5625 C 2.453125 -1.125 1.96875 -1.851562 1.625 -2.75 C 1.289062 -3.644531 1.125 -4.582031 1.125 -5.5625 Z M 4.140625 -5.5625 C 4.140625 -4.0625 4.253906 -2.835938 4.484375 -1.890625 C 4.722656 -0.941406 5.125 -0.46875 5.6875 -0.46875 C 5.9375 -0.46875 6.21875 -0.644531 6.53125 -1 C 6.84375 -1.351562 7.113281 -1.910156 7.34375 -2.671875 C 7.582031 -3.429688 7.703125 -4.421875 7.703125 -5.640625 C 7.703125 -6.578125 7.609375 -7.425781 7.421875 -8.1875 C 7.234375 -8.945312 6.988281 -9.550781 6.6875 -10 C 6.382812 -10.445312 6.050781 -10.671875 5.6875 -10.671875 C 5.125 -10.671875 4.722656 -10.195312 4.484375 -9.25 C 4.253906 -8.300781 4.140625 -7.070312 4.140625 -5.5625 Z M 4.140625 -5.5625 "/></g></g></g></svg>